<?xml version="1.0" encoding="utf-8"?>
<!-- Generator: Adobe Illustrator 16.0.0, SVG Export Plug-In . SVG Version: 6.00 Build 0)  -->
<!DOCTYPE svg PUBLIC "-//W3C//DTD SVG 1.1//EN" "http://www.w3.org/Graphics/SVG/1.1/DTD/svg11.dtd">
<svg version="1.1" id="Layer_1" xmlns="http://www.w3.org/2000/svg" xmlns:xlink="http://www.w3.org/1999/xlink" x="0px" y="0px"
	 width="25px" height="25px" viewBox="0 0 512 512" enable-background="new 0 0 512 512" xml:space="preserve">
<g id="Home_location">
	<path fill="#ae34eb" d="M438.97,476.428v-176.9l-114.812-79.151c-18.99,27.485-39.595,53.819-61.704,78.864
		c-3.216,3.582-8.726,3.877-12.306,0.66c-0.232-0.207-0.453-0.428-0.661-0.66c-22.11-25.045-42.715-51.378-61.706-78.864
		L72.97,299.527v176.9h122v-95.855c0-33.689,27.31-61,61-61c33.689,0,61,27.311,61,61l0,0v95.855H438.97z M334.398,380.572
		c0-4.813,3.901-8.715,8.714-8.715h69.715c4.813,0,8.714,3.902,8.714,8.715v52.285c0,4.813-3.901,8.715-8.714,8.715h-69.715
		c-4.813,0-8.714-3.902-8.714-8.715V380.572z M177.541,432.857c0,4.813-3.902,8.715-8.714,8.715H99.112
		c-4.812,0-8.714-3.902-8.714-8.715v-52.285c0-4.813,3.902-8.715,8.714-8.715h69.714c4.813,0,8.714,3.902,8.714,8.715V432.857z"/>
	<path fill="#ae34eb" d="M255.97,280.227c31.798-36.844,95.857-119.612,95.857-161.084c0-52.94-42.916-95.857-95.857-95.857
		c-52.94,0-95.857,42.917-95.857,95.857C160.112,160.641,224.171,243.4,255.97,280.227z M255.97,58.143c33.689,0,61,27.311,61,61
		c0,33.689-27.311,61-61,61c-33.69,0-61-27.311-61-61C195.008,85.47,222.296,58.181,255.97,58.143z"/>
	<circle fill="#ffffff" cx="255.97" cy="119.143" r="43.572"/>
	<path fill="#ae34eb" d="M107.827,389.285h52.286v34.857h-52.286V389.285z"/>
	<path fill="#ae34eb" d="M255.97,337c-24.053,0.027-43.543,19.52-43.571,43.572v95.855h87.143v-61c0,4.813-3.901,8.715-8.714,8.715
		h-8.715c-4.813,0-8.714-3.902-8.714-8.715s3.901-8.713,8.714-8.713h8.715c4.813,0,8.714,3.9,8.714,8.713v-34.855
		C299.514,356.52,280.021,337.027,255.97,337z"/>
	<path fill="#ae34eb" d="M346.973,183.733c-4.087,7.373-8.54,14.814-13.211,22.1l150.017,103.394L497,287.242L346.973,183.733z"/>
	<path fill="#ae34eb" d="M351.827,389.285h52.285v34.857h-52.285V389.285z"/>
	<path fill="#ffffff" d="M55.827,477.857h418.286v17.428H55.827V477.857z"/>
	<path fill="#ae34eb" d="M178.177,205.833c-4.671-7.32-9.124-14.727-13.211-22.1L14.941,287.242l13.219,21.984L178.177,205.833z"/>
</g>
</svg>
