<svg id="Capa_1" enable-background="new 0 0 512 512" height="35" viewBox="0 0 512 512" width="35" xmlns="http://www.w3.org/2000/svg"><g><path d="m248.72 509.014c4.041 3.981 10.518 3.981 14.559 0 33.477-32.985 171.016-177.807 171.016-330.719 0-98.469-79.825-178.295-178.295-178.295s-178.295 79.826-178.295 178.295c0 152.912 137.538 297.734 171.015 330.719z" fill="#dd5790"/><path d="m358.054 32.091c18.514 28.724 29.261 62.926 29.261 99.641 0 154.504-135.937 301.011-174.236 339.222 15.308 17.553 28.102 30.631 35.634 38.053 4.043 3.984 10.523 3.991 14.567.008 33.478-32.985 171.016-177.807 171.016-330.718-.001-60.512-30.151-113.974-76.242-146.206z" fill="#da387d"/><g><path d="m371.37 178.3c0 31.01-12.23 59.15-32.13 79.87h-166.48c-19.9-20.72-32.13-48.86-32.13-79.87 0-63.72 51.65-115.37 115.37-115.37s115.37 51.65 115.37 115.37z" fill="#d8e2f1"/><circle cx="256" cy="154.042" fill="#f1d0a5" r="49.162"/><path d="m277.894 110.025c3.287 6.595 5.145 14.026 5.145 21.894 0 27.152-22.011 49.162-49.162 49.162-7.869 0-15.3-1.858-21.894-5.145 8.054 16.161 24.734 27.268 44.017 27.268 27.152 0 49.162-22.011 49.162-49.162 0-19.283-11.107-35.963-27.268-44.017z" fill="#f1b986"/><path d="m285.5 226.3c0 28.16-14.17 52.9-35.6 67.2h-.01c-30.26-1.58-57.44-14.82-77.13-35.33 13.81-32.31 45.88-54.97 83.24-54.97 9.51 0 18.67 1.47 27.28 4.2 1.44 6.07 2.22 12.39 2.22 18.9z" fill="#ffe07d"/><path d="m249.893 293.504c2.022.105 4.058.159 6.107.159 32.709 0 62.233-13.608 83.235-35.489-10.291-24.091-30.735-42.806-55.953-50.775 1.442 6.07 2.216 12.389 2.216 18.905-.001 28.159-14.171 52.91-35.605 67.2z" fill="#ffd064"/></g></g></svg>